<svg width="52" height="52" viewBox="0 0 52 52" fill="none" xmlns="http://www.w3.org/2000/svg">
<rect width="52" height="52" rx="7" fill="white"/>
<g clip-path="url(#clip0_340_888)">
<path fill-rule="evenodd" clip-rule="evenodd" d="M35.6 26.2273C35.6 25.5182 35.5364 24.8364 35.4182 24.1819H26V28.0501H31.3818C31.15 29.3001 30.4455 30.3592 29.3864 31.0682V33.5773H32.6182C34.5091 31.8364 35.6 29.2728 35.6 26.2273Z" fill="#4285F4"/>
<path fill-rule="evenodd" clip-rule="evenodd" d="M25.9998 36C28.6998 36 30.9635 35.1046 32.618 33.5773L29.3862 31.0682C28.4907 31.6682 27.3453 32.0228 25.9998 32.0228C23.3953 32.0228 21.1907 30.2637 20.4044 27.9H17.0635V30.4909C18.7089 33.7591 22.0907 36 25.9998 36Z" fill="#34A853"/>
<path fill-rule="evenodd" clip-rule="evenodd" d="M20.4045 27.9001C20.2045 27.3001 20.0909 26.6592 20.0909 26.0001C20.0909 25.341 20.2045 24.7001 20.4045 24.1001V21.5092H17.0636C16.3864 22.8592 16 24.3864 16 26.0001C16 27.6137 16.3864 29.141 17.0636 30.491L20.4045 27.9001Z" fill="#FBBC05"/>
<path fill-rule="evenodd" clip-rule="evenodd" d="M25.9998 19.9773C27.468 19.9773 28.7862 20.4818 29.8226 21.4727L32.6907 18.6045C30.9589 16.9909 28.6953 16 25.9998 16C22.0907 16 18.7089 18.2409 17.0635 21.5091L20.4044 24.1C21.1907 21.7364 23.3953 19.9773 25.9998 19.9773Z" fill="#EA4335"/>
</g>
<defs>
<clipPath id="clip0_340_888">
<rect width="20" height="20" fill="white" transform="translate(16 16)"/>
</clipPath>
</defs>
</svg>
