<svg viewBox="0 0 200 240" xmlns="http://www.w3.org/2000/svg">
  <!-- 노트 배경 -->
  <rect x="20" y="10" width="160" height="220" fill="#FFF9E6" stroke="#E8D5B7" stroke-width="2" rx="5"/>
  
  <!-- 스파이럴 링 -->
  <g fill="#4A5568">
    <rect x="35" y="5" width="8" height="15" rx="4"/>
    <rect x="55" y="5" width="8" height="15" rx="4"/>
    <rect x="75" y="5" width="8" height="15" rx="4"/>
    <rect x="95" y="5" width="8" height="15" rx="4"/>
    <rect x="115" y="5" width="8" height="15" rx="4"/>
    <rect x="135" y="5" width="8" height="15" rx="4"/>
  </g>
  
  <!-- 노트 줄 -->
  <g stroke="#F5DEB3" stroke-width="1.5">
    <line x1="40" y1="50" x2="160" y2="50"/>
    <line x1="40" y1="70" x2="160" y2="70"/>
    <line x1="40" y1="90" x2="160" y2="90"/>
    <line x1="40" y1="110" x2="160" y2="110"/>
    <line x1="40" y1="130" x2="160" y2="130"/>
    <line x1="40" y1="150" x2="160" y2="150"/>
    <line x1="40" y1="170" x2="160" y2="170"/>
    <line x1="40" y1="190" x2="160" y2="190"/>
  </g>
  
  <!-- 체크박스 -->
  <g fill="none" stroke="#FFB84D" stroke-width="2">
    <rect x="45" y="43" width="12" height="12" rx="2"/>
    <rect x="45" y="63" width="12" height="12" rx="2"/>
    <rect x="45" y="83" width="12" height="12" rx="2"/>
    <rect x="45" y="103" width="12" height="12" rx="2"/>
    <rect x="45" y="123" width="12" height="12" rx="2"/>
    <rect x="45" y="143" width="12" height="12" rx="2"/>
  </g>
</svg>